<svg width="36" height="36" viewBox="0 0 36 36" fill="none" xmlns="http://www.w3.org/2000/svg">
<path d="M26.7153 16.2134C24.9357 16.2134 23.288 15.648 21.9425 14.687V21.6726C21.9425 25.1671 19.1082 28 15.612 28C14.3075 28 13.095 27.6058 12.0878 26.9298C10.3955 25.7941 9.28125 23.863 9.28125 21.6726C9.28125 18.1783 12.1156 15.3454 15.6121 15.3455C15.9027 15.3454 16.1929 15.3651 16.4807 15.4044V16.18L16.4806 18.904C16.2035 18.8161 15.9082 18.7684 15.6017 18.7684C14.0023 18.7684 12.7059 20.0643 12.7059 21.6627C12.7059 22.7928 13.3539 23.7714 14.2989 24.2481C14.6907 24.4456 15.1332 24.5569 15.6017 24.5569C17.1979 24.5569 18.492 23.2663 18.4975 21.6726V8H21.9425V8.44029C21.9546 8.57192 21.9721 8.70305 21.995 8.83332C22.234 10.1964 23.0495 11.3609 24.1813 12.0669C24.9413 12.541 25.8196 12.7917 26.7154 12.7903L26.7153 16.2134Z" fill="#545454"/>
</svg>
