<svg width="18" height="18" viewBox="0 0 18 18" fill="none" xmlns="http://www.w3.org/2000/svg">
<g clip-path="url(#clip0_635_42890)">
<path fill-rule="evenodd" clip-rule="evenodd" d="M14.2492 2.69922H3.74922C3.47074 2.69922 3.20367 2.80984 3.00676 3.00676C2.80984 3.20367 2.69922 3.47074 2.69922 3.74922V14.2492C2.69922 14.5277 2.80984 14.7948 3.00676 14.9917C3.20367 15.1886 3.47074 15.2992 3.74922 15.2992H10.882C11.0199 15.2994 11.1565 15.2724 11.2839 15.2195C11.4113 15.1667 11.5269 15.0892 11.6242 14.9914L14.9914 11.6242C15.0892 11.5269 15.1667 11.4113 15.2195 11.2839C15.2724 11.1565 15.2994 11.0199 15.2992 10.882V3.74922C15.2992 3.47074 15.1886 3.20367 14.9917 3.00676C14.7948 2.80984 14.5277 2.69922 14.2492 2.69922ZM6.89922 6.37422H11.0992C11.2385 6.37422 11.372 6.42953 11.4704 6.52799C11.5689 6.62644 11.6242 6.75998 11.6242 6.89922C11.6242 7.03846 11.5689 7.17199 11.4704 7.27045C11.372 7.36891 11.2385 7.42422 11.0992 7.42422H6.89922C6.75998 7.42422 6.62644 7.36891 6.52799 7.27045C6.42953 7.17199 6.37422 7.03846 6.37422 6.89922C6.37422 6.75998 6.42953 6.62644 6.52799 6.52799C6.62644 6.42953 6.75998 6.37422 6.89922 6.37422ZM8.99922 11.6242H6.89922C6.75998 11.6242 6.62644 11.5689 6.52799 11.4704C6.42953 11.372 6.37422 11.2385 6.37422 11.0992C6.37422 10.96 6.42953 10.8264 6.52799 10.728C6.62644 10.6295 6.75998 10.5742 6.89922 10.5742H8.99922C9.13846 10.5742 9.27199 10.6295 9.37045 10.728C9.46891 10.8264 9.52422 10.96 9.52422 11.0992C9.52422 11.2385 9.46891 11.372 9.37045 11.4704C9.27199 11.5689 9.13846 11.6242 8.99922 11.6242ZM6.89922 9.52422C6.75998 9.52422 6.62644 9.46891 6.52799 9.37045C6.42953 9.27199 6.37422 9.13846 6.37422 8.99922C6.37422 8.85998 6.42953 8.72644 6.52799 8.62799C6.62644 8.52953 6.75998 8.47422 6.89922 8.47422H11.0992C11.2385 8.47422 11.372 8.52953 11.4704 8.62799C11.5689 8.72644 11.6242 8.85998 11.6242 8.99922C11.6242 9.13846 11.5689 9.27199 11.4704 9.37045C11.372 9.46891 11.2385 9.52422 11.0992 9.52422H6.89922ZM11.0992 14.032V11.0992H14.0327L11.0992 14.032Z" fill="#606060"/>
</g>
<defs>
<clipPath id="clip0_635_42890">
<rect width="18" height="18" fill="white"/>
</clipPath>
</defs>
</svg>
