<svg width="16" height="16" viewBox="0 0 16 16" fill="none" xmlns="http://www.w3.org/2000/svg">
<path d="M12.8333 14C12.8333 14.2761 13.0572 14.5 13.3333 14.5C13.6095 14.5 13.8333 14.2761 13.8333 14H13.3333H12.8333ZM2.16666 14C2.16666 14.2761 2.39051 14.5 2.66666 14.5C2.9428 14.5 3.16666 14.2761 3.16666 14H2.66666H2.16666ZM11.3333 5.33333H10.8333C10.8333 6.89814 9.5648 8.16667 7.99999 8.16667V8.66667V9.16667C10.1171 9.16667 11.8333 7.45043 11.8333 5.33333H11.3333ZM7.99999 8.66667V8.16667C6.43518 8.16667 5.16666 6.89814 5.16666 5.33333H4.66666H4.16666C4.16666 7.45043 5.8829 9.16667 7.99999 9.16667V8.66667ZM4.66666 5.33333H5.16666C5.16666 3.76853 6.43518 2.5 7.99999 2.5V2V1.5C5.8829 1.5 4.16666 3.21624 4.16666 5.33333H4.66666ZM7.99999 2V2.5C9.5648 2.5 10.8333 3.76853 10.8333 5.33333H11.3333H11.8333C11.8333 3.21624 10.1171 1.5 7.99999 1.5V2ZM13.3333 14H13.8333C13.8333 12.4529 13.2187 10.9692 12.1248 9.87521L11.7712 10.2288L11.4177 10.5823C12.3241 11.4887 12.8333 12.7181 12.8333 14H13.3333ZM11.7712 10.2288L12.1248 9.87521C11.0308 8.78125 9.54709 8.16667 7.99999 8.16667V8.66667V9.16667C9.28187 9.16667 10.5112 9.67589 11.4177 10.5823L11.7712 10.2288ZM7.99999 8.66667V8.16667C6.45289 8.16667 4.96916 8.78125 3.8752 9.87521L4.22875 10.2288L4.58231 10.5823C5.48873 9.67589 6.71811 9.16667 7.99999 9.16667V8.66667ZM4.22875 10.2288L3.8752 9.87521C2.78124 10.9692 2.16666 12.4529 2.16666 14H2.66666H3.16666C3.16666 12.7181 3.67588 11.4887 4.58231 10.5823L4.22875 10.2288Z" fill="white"/>
</svg>
