<svg width="18" height="18" viewBox="0 0 18 18" fill="none" xmlns="http://www.w3.org/2000/svg">
<g clip-path="url(#clip0_339_94887)">
<path d="M0 0H18V18H0V0Z" fill="#C4E557"/>
<path d="M5.51554 3.82428C5.54558 3.82064 5.59671 3.81908 5.62715 3.81907C5.90705 3.81901 6.18742 3.81988 6.46728 3.8199L8.20943 3.81973L9.37662 3.81926C9.70972 3.81906 10 3.81055 10.3321 3.85011C11.202 3.95985 12.0124 4.35045 12.6401 4.9626C13.4051 5.71013 13.8403 6.73196 13.8493 7.80155C13.8597 8.8694 13.4455 9.89763 12.6978 10.66C11.9567 11.4132 10.9486 11.844 9.89209 11.859C9.79357 11.8581 9.69496 11.8592 9.59643 11.8623L9.59625 14.1746L9.59696 14.8632C9.59705 15.01 9.6148 15.2837 9.5611 15.414C9.48252 15.6047 9.21797 15.5813 9.04448 15.5701C8.51495 15.5378 7.99724 15.3999 7.52183 15.1646C6.56023 14.6916 5.82683 13.8548 5.48404 12.8395C5.37429 12.5144 5.30746 12.1762 5.28524 11.8338C5.26037 11.4107 5.27382 10.879 5.27386 10.4489L5.274 8.06918L5.27389 5.43723L5.27385 4.58154C5.27384 4.40947 5.25007 4.13331 5.31416 3.97289C5.34474 3.89635 5.43857 3.85025 5.51554 3.82428Z" fill="#3C402C"/>
<path d="M9.59774 4.42432C9.61102 4.42381 9.62429 4.4234 9.63756 4.42309C10.6202 4.40009 11.4969 4.70176 12.2101 5.38992C12.859 6.02286 13.2303 6.8874 13.2425 7.79379C13.255 8.74476 12.8937 9.59098 12.2331 10.2675C11.4686 10.9966 10.641 11.2758 9.59766 11.2537L9.59774 4.42432Z" fill="#C4E557"/>
<path d="M6.07617 4.42543L7.78582 4.42364C8.18293 4.42365 8.59599 4.41822 8.99142 4.42635L8.98878 10.2686C8.96145 10.233 8.85237 10.0077 8.82381 9.95064L8.47078 9.24505L7.1001 6.494L6.36913 5.03222C6.32658 4.94709 6.09565 4.49609 6.07617 4.42543Z" fill="#C4E557"/>
<path d="M5.88672 11.8654C6.91 11.8526 7.96462 11.8641 8.98929 11.865C8.98006 12.8946 9.00028 13.9327 8.98622 14.9613C8.36438 14.9105 7.72445 14.6553 7.22966 14.2787C6.61575 13.8129 6.17715 13.1534 5.98497 12.407C5.93755 12.2242 5.91198 12.0523 5.88672 11.8654Z" fill="#C4E557"/>
</g>
<defs>
<clipPath id="clip0_339_94887">
<rect width="18" height="18" rx="9" fill="white"/>
</clipPath>
</defs>
</svg>
